<svg xmlns="http://www.w3.org/2000/svg" xmlns:xlink="http://www.w3.org/1999/xlink" width="500" zoomAndPan="magnify" viewBox="0 0 375 374.999991" height="500" preserveAspectRatio="xMidYMid meet" version="1.0"><defs><clipPath id="303ec00bc9"><path d="M 144 167 L 155 167 L 155 201 L 144 201 Z M 144 167 " clip-rule="nonzero"/></clipPath><clipPath id="2fd8d8ec9f"><path d="M 138.609375 172.667969 L 152.800781 167.8125 L 162.265625 195.488281 L 148.074219 200.34375 Z M 138.609375 172.667969 " clip-rule="nonzero"/></clipPath><clipPath id="ee95a006d1"><path d="M 138.609375 172.667969 L 152.800781 167.8125 L 162.265625 195.488281 L 148.074219 200.34375 Z M 138.609375 172.667969 " clip-rule="nonzero"/></clipPath><clipPath id="8fa7d7a409"><path d="M 144 169 L 150 169 L 150 201 L 144 201 Z M 144 169 " clip-rule="nonzero"/></clipPath><clipPath id="6d4f42ce1c"><path d="M 138.609375 172.667969 L 152.800781 167.8125 L 162.265625 195.488281 L 148.074219 200.34375 Z M 138.609375 172.667969 " clip-rule="nonzero"/></clipPath><clipPath id="9a8ab24350"><path d="M 138.609375 172.667969 L 152.800781 167.8125 L 162.265625 195.488281 L 148.074219 200.34375 Z M 138.609375 172.667969 " clip-rule="nonzero"/></clipPath><clipPath id="2b49b4a55c"><path d="M 3.457031 0 L 375 0 L 375 371.542969 L 3.457031 371.542969 Z M 3.457031 0 " clip-rule="nonzero"/></clipPath><clipPath id="e159b69dbb"><path d="M 189.230469 0 C 86.628906 0 3.457031 83.171875 3.457031 185.769531 C 3.457031 288.371094 86.628906 371.542969 189.230469 371.542969 C 291.828125 371.542969 375 288.371094 375 185.769531 C 375 83.171875 291.828125 0 189.230469 0 Z M 189.230469 0 " clip-rule="nonzero"/></clipPath><clipPath id="ea38e156c9"><path d="M 156 100 L 212 100 L 212 280 L 156 280 Z M 156 100 " clip-rule="nonzero"/></clipPath><clipPath id="9ac55f04b7"><path d="M 124.152344 127.347656 L 202.210938 100.648438 L 254.402344 253.21875 L 176.34375 279.917969 Z M 124.152344 127.347656 " clip-rule="nonzero"/></clipPath><clipPath id="e03dea7654"><path d="M 124.152344 127.347656 L 202.210938 100.648438 L 254.402344 253.21875 L 176.34375 279.917969 Z M 124.152344 127.347656 " clip-rule="nonzero"/></clipPath><clipPath id="cc4bd23ac2"><path d="M 156 111 L 186 111 L 186 280 L 156 280 Z M 156 111 " clip-rule="nonzero"/></clipPath><clipPath id="9f42b21b2b"><path d="M 124.152344 127.347656 L 202.210938 100.648438 L 254.402344 253.21875 L 176.34375 279.917969 Z M 124.152344 127.347656 " clip-rule="nonzero"/></clipPath><clipPath id="79be4f5df3"><path d="M 124.152344 127.347656 L 202.210938 100.648438 L 254.402344 253.21875 L 176.34375 279.917969 Z M 124.152344 127.347656 " clip-rule="nonzero"/></clipPath></defs><g clip-path="url(#303ec00bc9)"><g clip-path="url(#2fd8d8ec9f)"><g clip-path="url(#ee95a006d1)"><path fill="#ffffff" d="M 145.554688 170.289062 L 152.625 167.871094 L 150.265625 179.289062 L 154.410156 177.871094 L 148.03125 200.210938 L 148.851562 184.296875 L 144.417969 186.0625 Z M 145.554688 170.289062 " fill-opacity="1" fill-rule="nonzero"/></g></g></g><g clip-path="url(#8fa7d7a409)"><g clip-path="url(#6d4f42ce1c)"><g clip-path="url(#9a8ab24350)"><path fill="#ffffff" d="M 145.554688 170.289062 L 146.773438 169.875 L 144.417969 186.0625 Z M 148.03125 200.210938 L 149.703125 184.003906 L 148.851562 184.296875 Z M 148.03125 200.210938 " fill-opacity="1" fill-rule="nonzero"/></g></g></g><g clip-path="url(#2b49b4a55c)"><g clip-path="url(#e159b69dbb)"><path fill="#2f4b5b" d="M 3.457031 0 L 375 0 L 375 371.542969 L 3.457031 371.542969 Z M 3.457031 0 " fill-opacity="1" fill-rule="nonzero"/></g></g><g clip-path="url(#ea38e156c9)"><g clip-path="url(#9ac55f04b7)"><g clip-path="url(#e03dea7654)"><path fill="#ffffff" d="M 162.742188 114.148438 L 201.980469 100.726562 L 188.894531 164.097656 L 211.898438 156.230469 L 176.484375 280.242188 L 181.027344 191.902344 L 156.421875 201.699219 Z M 162.742188 114.148438 " fill-opacity="1" fill-rule="nonzero"/></g></g></g><g clip-path="url(#cc4bd23ac2)"><g clip-path="url(#9f42b21b2b)"><g clip-path="url(#79be4f5df3)"><path fill="#ffffff" d="M 162.742188 114.148438 L 169.507812 111.835938 L 156.421875 201.699219 Z M 176.484375 280.242188 L 185.761719 190.28125 L 181.027344 191.902344 Z M 176.484375 280.242188 " fill-opacity="1" fill-rule="nonzero"/></g></g></g></svg>