<svg xmlns="http://www.w3.org/2000/svg" xmlns:xlink="http://www.w3.org/1999/xlink" width="500" zoomAndPan="magnify" viewBox="0 0 375 374.999991" height="500" preserveAspectRatio="xMidYMid meet" version="1.0"><defs><clipPath id="865a05e49d"><path d="M 187.5 0 C 83.945312 0 0 83.945312 0 187.5 C 0 291.054688 83.945312 375 187.5 375 C 291.054688 375 375 291.054688 375 187.5 C 375 83.945312 291.054688 0 187.5 0 Z M 187.5 0 " clip-rule="nonzero"/></clipPath><clipPath id="7e091a358f"><path d="M 78.246094 235 L 296.496094 235 L 296.496094 302.808594 L 78.246094 302.808594 Z M 78.246094 235 " clip-rule="nonzero"/></clipPath></defs><g clip-path="url(#865a05e49d)"><rect x="-37.5" width="450" fill="#fe8f78" y="-37.499999" height="449.999989" fill-opacity="1"/></g><path fill="#1a1a1a" d="M 106.847656 255.808594 C 96.132812 249.171875 92.472656 238.523438 96.789062 226.507812 C 98.140625 222.753906 100.089844 219.289062 102.058594 215.835938 C 105.851562 209.148438 108.789062 202.15625 109.910156 194.472656 C 110.539062 190.136719 109.785156 185.894531 109.082031 181.6875 C 107.070312 169.589844 110.292969 159.332031 119.246094 150.917969 C 120.835938 149.425781 122.308594 147.808594 123.878906 146.292969 C 129.1875 141.167969 131.765625 134.890625 132.132812 127.535156 C 132.417969 121.855469 132.960938 116.191406 134.351562 110.636719 C 140.15625 87.445312 161.371094 72.566406 185.105469 75.109375 C 186.183594 75.226562 187.324219 75.285156 188.308594 75.695312 C 190.933594 76.769531 193.460938 76.5625 196.210938 76.054688 C 211.578125 73.183594 223.703125 78.84375 233.597656 90.488281 C 241.859375 100.222656 246.121094 111.34375 246.035156 124.140625 C 246.019531 125.859375 246.097656 127.574219 246.035156 129.289062 C 245.820312 135.160156 247.851562 140.136719 251.972656 144.257812 C 253.734375 146.015625 255.480469 147.824219 257.40625 149.386719 C 265.800781 156.179688 268.542969 164.921875 266.917969 175.4375 C 266.195312 180.117188 265.71875 184.859375 266.484375 189.644531 C 267.238281 194.355469 269.261719 198.371094 272.460938 201.832031 C 274.046875 203.546875 275.691406 205.210938 277.367188 206.835938 C 282.6875 212.011719 285.339844 218.179688 284.890625 225.722656 C 284.570312 231.121094 283.921875 236.441406 282.347656 241.609375 C 280.390625 248.027344 276.539062 252.917969 270.414062 255.859375 C 268.878906 256.761719 267.925781 255.539062 266.949219 254.785156 C 260.136719 249.539062 252.695312 245.429688 244.679688 242.390625 C 237.773438 239.777344 230.617188 238.058594 223.332031 236.878906 C 222.179688 236.691406 221.097656 236.242188 219.933594 236.136719 C 218.15625 236.234375 216.394531 235.980469 214.65625 235.714844 C 210.792969 235.125 209.410156 233.730469 208.597656 229.839844 C 208.460938 224.796875 208.199219 219.75 208.765625 214.714844 C 208.5 212.976562 209.46875 212.0625 210.84375 211.207031 C 218.636719 206.339844 224.347656 199.78125 227.078125 190.835938 C 227.488281 189.488281 227.660156 188.089844 227.988281 186.730469 C 228.398438 185.042969 229.425781 184.445312 231.039062 184.515625 C 232.199219 184.566406 233.339844 184.84375 234.523438 184.703125 C 239.804688 184.066406 243.035156 181.28125 244.574219 175.957031 C 245.59375 172.421875 245.605469 168.878906 244.605469 165.332031 C 243.265625 160.582031 240.394531 158.339844 235.457031 158.171875 C 233.832031 158.113281 232.195312 158.246094 230.609375 157.679688 C 227.707031 156.644531 226.292969 154.828125 226.234375 151.761719 C 226.152344 147.863281 226.152344 143.957031 226.222656 140.0625 C 226.269531 137.582031 225.292969 135.890625 223.050781 134.859375 C 221.773438 134.28125 220.5625 133.570312 219.261719 133.039062 C 209.375 128.996094 203.214844 121.828125 201.078125 111.261719 C 200.386719 107.839844 198.984375 107.078125 195.476562 107.261719 C 189.433594 107.570312 185.621094 110.71875 183.007812 115.984375 C 180.246094 121.566406 177.886719 127.378906 174.238281 132.484375 C 172.15625 135.394531 169.441406 137.46875 166.371094 139.429688 C 161.953125 142.253906 156.996094 142.300781 152.285156 143.554688 C 149.757812 144.230469 149.449219 144.308594 149.09375 147.023438 C 148.851562 148.878906 148.722656 150.78125 148.042969 152.523438 C 147.042969 155.113281 145.425781 156.964844 142.332031 157.273438 C 134.347656 158.066406 129.566406 164.316406 130.597656 172.402344 C 130.714844 173.332031 130.867188 174.257812 131.054688 175.171875 C 132.328125 181.367188 137.230469 184.734375 143.441406 183.703125 C 147.054688 183.105469 147.363281 183.269531 148.109375 186.921875 C 150.277344 197.539062 156.113281 205.535156 165.257812 211.183594 C 166.214844 211.773438 167.164062 212.308594 167.007812 213.667969 C 167.710938 218.894531 167.160156 224.140625 167.382812 229.375 C 167.414062 230.136719 167.59375 230.902344 167.511719 231.667969 C 166.730469 234.382812 164.464844 235.171875 162.097656 235.71875 C 160.070312 236.1875 158 236.410156 155.929688 236.5625 C 146.449219 238.550781 137 240.625 128.109375 244.6875 C 121.804688 247.566406 115.808594 250.921875 110.277344 255.121094 C 109.316406 255.851562 108.292969 257.117188 106.847656 255.8125 Z M 106.847656 255.808594 " fill-opacity="1" fill-rule="nonzero"/><g clip-path="url(#7e091a358f)"><path fill="#fdecd7" d="M 220.277344 235.253906 C 237.820312 237.542969 254.058594 243.148438 268.136719 254.238281 C 268.863281 254.816406 269.652344 255.316406 270.414062 255.851562 C 273.035156 258.507812 275.765625 261.066406 278.253906 263.847656 C 287.609375 274.308594 293.65625 286.414062 296.117188 300.3125 C 296.488281 302.414062 295.875 302.796875 293.9375 302.796875 C 222.847656 302.746094 151.75 302.738281 80.660156 302.761719 C 78.753906 302.761719 78.246094 302.351562 78.789062 300.375 C 83.15625 284.425781 91.066406 270.640625 103.28125 259.402344 C 104.515625 258.265625 106.09375 257.4375 106.851562 255.808594 C 107.953125 255.5625 108.769531 254.820312 109.628906 254.167969 C 123.257812 243.859375 138.757812 238.214844 155.511719 235.6875 C 156.101562 236.28125 156.773438 236.753906 157.078125 237.652344 C 159.234375 244.066406 163.789062 248.390625 169.847656 250.804688 C 182.515625 255.839844 195.246094 255.550781 207.636719 249.773438 C 213.019531 247.261719 217.109375 243.25 218.753906 237.253906 C 219.007812 236.335938 219.703125 235.867188 220.28125 235.257812 Z M 220.277344 235.253906 " fill-opacity="1" fill-rule="nonzero"/></g><path fill="#fe8f78" d="M 166.277344 213.1875 C 157.285156 208.011719 150.792969 200.753906 147.8125 190.648438 C 147.242188 188.714844 147.535156 186.121094 146.34375 184.878906 C 145.089844 183.570312 142.675781 185.273438 140.675781 185.148438 C 135.871094 184.84375 132.558594 182.472656 130.808594 178.144531 C 128.359375 172.105469 129.019531 166.214844 132.539062 160.726562 C 134.441406 157.769531 137.183594 156.339844 140.769531 156.257812 C 144.996094 156.15625 146.566406 154.726562 147.363281 150.558594 C 147.742188 148.574219 147.960938 146.550781 148.109375 144.535156 C 148.222656 143.003906 148.808594 142.445312 150.40625 142.40625 C 154.464844 142.3125 158.421875 141.554688 162.285156 140.238281 C 166.71875 138.734375 170.195312 135.992188 172.957031 132.273438 C 175.625 128.6875 177.492188 124.648438 179.410156 120.644531 C 180.449219 118.464844 181.476562 116.273438 182.664062 114.171875 C 186.757812 106.925781 191.398438 105.394531 200.464844 106.402344 C 201.328125 106.5 201.613281 106.933594 201.730469 107.75 C 201.964844 109.363281 202.253906 110.980469 202.632812 112.570312 C 204.570312 120.601562 209.070312 126.652344 216.5 130.390625 C 219.136719 131.714844 221.84375 132.910156 224.46875 134.261719 C 226.648438 135.378906 227.738281 136.996094 227.480469 139.726562 C 227.125 143.515625 227.191406 147.359375 227.261719 151.175781 C 227.332031 154.765625 229.109375 156.550781 232.667969 156.953125 C 233.28125 157.023438 233.910156 157.023438 234.53125 157.039062 C 241.777344 157.210938 244.925781 159.882812 246.226562 167.066406 C 246.921875 170.914062 246.515625 174.691406 245.035156 178.308594 C 242.792969 183.78125 237.679688 186.589844 231.65625 185.722656 C 230.371094 185.535156 229.347656 185.277344 229.023438 187.207031 C 227.1875 198.238281 220.859375 206.175781 211.660156 212.074219 C 210.835938 212.605469 209.765625 212.914062 209.546875 214.09375 C 207.746094 216.484375 205.011719 217.402344 202.386719 218.234375 C 191.199219 221.765625 180.183594 221.371094 169.457031 216.347656 C 167.996094 215.664062 166.863281 214.710938 166.277344 213.175781 Z M 166.277344 213.1875 " fill-opacity="1" fill-rule="nonzero"/><path fill="#f46958" d="M 220.277344 235.253906 C 219.386719 242.65625 214.777344 247.316406 208.628906 250.609375 C 200.171875 255.144531 191.003906 255.945312 181.632812 255.03125 C 175.28125 254.414062 169.222656 252.738281 164.019531 248.828125 C 159.605469 245.507812 156.222656 241.445312 155.503906 235.679688 C 157.941406 235.230469 160.378906 234.792969 162.8125 234.335938 C 164.339844 234.050781 165.582031 233.347656 166.273438 231.878906 C 166.636719 228.738281 166.925781 228.546875 170.046875 229.746094 C 181.59375 234.171875 193.21875 233.992188 204.929688 230.4375 C 206.414062 229.988281 207.914062 228.886719 209.5625 230.050781 C 210.101562 232.78125 211.871094 234.136719 214.527344 234.492188 C 216.441406 234.746094 218.363281 235.003906 220.277344 235.253906 Z M 220.277344 235.253906 " fill-opacity="1" fill-rule="nonzero"/><path fill="#f46958" d="M 209.554688 230.050781 C 196.015625 235.203125 182.410156 236.054688 168.785156 230.457031 C 167.007812 229.730469 166.660156 230.617188 166.265625 231.878906 C 166.265625 225.648438 166.265625 219.417969 166.265625 213.1875 C 179.585938 220.980469 193.207031 221.476562 207.132812 214.902344 C 207.894531 214.542969 208.734375 214.367188 209.539062 214.101562 C 209.539062 219.421875 209.546875 224.734375 209.546875 230.054688 Z M 209.554688 230.050781 " fill-opacity="1" fill-rule="nonzero"/><path fill="#f46958" d="M 206.789062 179.660156 C 206.789062 175.75 209.265625 173.324219 213.226562 173.355469 C 216.859375 173.382812 219.894531 176.449219 219.824219 180.03125 C 219.753906 183.449219 216.546875 186.472656 213.0625 186.390625 C 209.617188 186.316406 206.789062 183.277344 206.792969 179.65625 Z M 206.789062 179.660156 " fill-opacity="1" fill-rule="nonzero"/><path fill="#f46958" d="M 161.3125 173.359375 C 165.113281 173.355469 168.027344 176.167969 168.050781 179.863281 C 168.070312 183.480469 164.996094 186.449219 161.28125 186.390625 C 157.84375 186.34375 154.960938 183.242188 154.984375 179.617188 C 155.007812 175.972656 157.644531 173.363281 161.3125 173.355469 Z M 161.3125 173.359375 " fill-opacity="1" fill-rule="nonzero"/><path fill="#f46958" d="M 184.320312 151.976562 C 186.5 156.484375 187.535156 160.65625 187.671875 165.058594 C 187.726562 166.691406 187.683594 168.332031 187.710938 169.96875 C 187.738281 171.476562 188.269531 172.78125 189.699219 173.410156 C 191.492188 174.195312 190.78125 174.929688 189.742188 175.644531 C 187.417969 177.230469 184.492188 176.007812 184.417969 173.378906 C 184.238281 166.683594 184.761719 159.976562 183.972656 153.296875 C 183.949219 153.085938 184.078125 152.855469 184.316406 151.976562 Z M 184.320312 151.976562 " fill-opacity="1" fill-rule="nonzero"/><path fill="#f46958" d="M 172.683594 183.261719 C 182.480469 187.53125 192.164062 187.898438 201.917969 183.851562 C 196.824219 191.382812 176.542969 189.605469 172.683594 183.261719 Z M 172.683594 183.261719 " fill-opacity="1" fill-rule="nonzero"/><path fill="#1a1a1a" d="M 157.742188 145.621094 C 156.863281 145.652344 156.199219 145.484375 155.976562 144.664062 C 155.761719 143.882812 156.113281 143.214844 156.792969 142.921875 C 160.929688 141.140625 165.210938 139.867188 169.707031 139.433594 C 170.320312 139.378906 170.976562 139.621094 171.191406 140.320312 C 171.394531 140.964844 170.964844 141.390625 170.425781 141.566406 C 166.164062 142.945312 161.898438 144.300781 157.742188 145.621094 Z M 157.742188 145.621094 " fill-opacity="1" fill-rule="nonzero"/><path fill="#1a1a1a" d="M 205.625 139.691406 C 209.371094 140.222656 213.199219 140.824219 216.742188 142.492188 C 217.496094 142.847656 218.746094 143.183594 218.160156 144.441406 C 217.65625 145.519531 216.621094 145.210938 215.710938 144.894531 C 212.339844 143.714844 208.875 142.945312 205.332031 142.496094 C 204.257812 142.359375 202.609375 142.679688 202.730469 140.992188 C 202.84375 139.421875 204.414062 139.78125 205.628906 139.6875 Z M 205.625 139.691406 " fill-opacity="1" fill-rule="nonzero"/><path fill="#1a1a1a" d="M 155.367188 160.332031 C 159.613281 154.195312 166.128906 153.835938 169.753906 159.148438 C 170.230469 159.84375 171.039062 160.761719 170.554688 161.421875 C 169.925781 162.273438 169.023438 161.320312 168.273438 161.03125 C 167.699219 160.8125 167.136719 160.511719 166.640625 160.148438 C 163.789062 158.042969 160.835938 157.796875 157.703125 159.5 C 156.984375 159.890625 156.148438 160.0625 155.367188 160.332031 Z M 155.367188 160.332031 " fill-opacity="1" fill-rule="nonzero"/><path fill="#1a1a1a" d="M 203.289062 162.421875 C 204.0625 159.238281 205.484375 156.519531 207.152344 153.929688 C 207.816406 152.894531 208.679688 152.898438 209.457031 153.785156 C 211.191406 155.753906 212.648438 157.914062 213.914062 160.417969 C 211.601562 160.605469 210.320312 157.707031 208.152344 158.984375 C 206.445312 159.988281 204.90625 161.265625 203.289062 162.421875 Z M 203.289062 162.421875 " fill-opacity="1" fill-rule="nonzero"/><path fill="#f46958" d="M 144.078125 171.085938 C 143.4375 170.25 142.777344 169.429688 142.167969 168.574219 C 141.386719 167.476562 140.59375 166.445312 139.097656 166.332031 C 138.726562 166.304688 138.246094 166.234375 138.21875 165.75 C 138.1875 165.203125 138.664062 164.988281 139.097656 164.8125 C 139.996094 164.457031 140.78125 164.78125 141.480469 165.324219 C 143.277344 166.71875 144.234375 168.574219 144.070312 171.085938 Z M 144.078125 171.085938 " fill-opacity="1" fill-rule="nonzero"/><path fill="#f46958" d="M 237.621094 165.09375 C 234.210938 166.226562 232.695312 169.027344 231.007812 171.859375 C 230.46875 167.5625 234.09375 163.78125 237.621094 165.09375 Z M 237.621094 165.09375 " fill-opacity="1" fill-rule="nonzero"/></svg>