<svg xmlns="http://www.w3.org/2000/svg" xmlns:xlink="http://www.w3.org/1999/xlink" width="500" zoomAndPan="magnify" viewBox="0 0 375 374.999991" height="500" preserveAspectRatio="xMidYMid meet" version="1.0"><defs><clipPath id="bb78407eeb"><path d="M 187.5 0 C 83.945312 0 0 83.945312 0 187.5 C 0 291.054688 83.945312 375 187.5 375 C 291.054688 375 375 291.054688 375 187.5 C 375 83.945312 291.054688 0 187.5 0 Z M 187.5 0 " clip-rule="nonzero"/></clipPath><clipPath id="f3f4d05e2d"><path d="M 98.464844 243 L 276.214844 243 L 276.214844 306.773438 L 98.464844 306.773438 Z M 98.464844 243 " clip-rule="nonzero"/></clipPath></defs><g clip-path="url(#bb78407eeb)"><rect x="-37.5" width="450" fill="#f1f8fa" y="-37.499999" height="449.999989" fill-opacity="1"/></g><g clip-path="url(#f3f4d05e2d)"><path fill="#964f4f" d="M 275.84375 292.121094 C 275.914062 296.046875 275.914062 299.984375 276.089844 303.910156 C 276.179688 305.964844 275.539062 306.785156 273.363281 306.703125 C 269.324219 306.550781 265.28125 306.660156 261.246094 306.660156 C 208.492188 306.660156 155.742188 306.617188 102.988281 306.730469 C 99.617188 306.738281 98.523438 305.847656 98.785156 302.527344 C 99.117188 298.386719 99.070312 294.214844 99.179688 290.050781 C 101.21875 289.953125 101.242188 291.511719 101.378906 292.859375 C 101.617188 295.164062 101.386719 297.488281 101.566406 299.792969 C 101.671875 301.082031 101.871094 302.585938 103.480469 302.652344 C 105.359375 302.722656 105.625 301.082031 105.625 299.683594 C 105.625 293.769531 106.171875 287.980469 107.613281 282.175781 C 109.765625 273.539062 115.035156 267.332031 121.894531 262.363281 C 132.445312 254.722656 144.535156 250.472656 157.054688 247.355469 C 161.304688 246.300781 165.578125 245.3125 169.921875 244.652344 C 171.902344 243.6875 173.214844 244.863281 174.449219 246.140625 C 178.625 250.457031 183.070312 254.488281 187.539062 258.492188 C 187.882812 258.796875 188.195312 259.136719 188.542969 259.441406 C 193.480469 263.835938 194.371094 263.71875 199.191406 259.324219 C 204.21875 254.738281 209.328125 250.25 213.628906 244.925781 C 214.554688 243.777344 215.675781 242.617188 217.464844 243.207031 C 224.921875 244.714844 232.308594 246.476562 239.355469 249.433594 C 248.183594 253.148438 256.160156 258.011719 261.871094 266.011719 C 267.445312 273.828125 269.359375 282.773438 269.964844 292.105469 C 270.125 294.644531 270.144531 297.183594 270.671875 299.683594 C 270.878906 300.65625 270.824219 302.089844 272.21875 301.949219 C 273.5 301.816406 273.402344 300.421875 273.480469 299.414062 C 273.605469 297.800781 273.4375 296.175781 273.675781 294.570312 C 273.855469 293.316406 273.980469 291.921875 275.84375 292.121094 Z M 275.84375 292.121094 " fill-opacity="1" fill-rule="nonzero"/></g><path fill="#fe9881" d="M 175.425781 210.097656 C 175.460938 208.417969 174.261719 207.769531 173.019531 207.070312 C 165.042969 202.558594 157.511719 197.492188 152.164062 189.8125 C 150.964844 188.089844 149.355469 188.589844 147.800781 188.609375 C 138.5625 188.734375 131.425781 183.132812 129.34375 174.105469 C 127.355469 165.464844 131.96875 158.980469 140.753906 158.0625 C 141.539062 157.980469 142.398438 158.140625 142.882812 157.273438 C 143.488281 156.890625 144.113281 156.730469 144.847656 156.800781 C 146.886719 156.988281 147.925781 155.882812 147.925781 153.957031 C 147.914062 145.0625 148.605469 136.128906 147.578125 127.28125 C 146.957031 121.902344 148.660156 118.027344 152.960938 115.105469 C 159.738281 110.511719 167.519531 109.394531 175.398438 109.246094 C 178.9375 109.179688 181.980469 110.964844 184.894531 113.472656 C 189 116.996094 194.007812 119.445312 197.878906 122.042969 C 194.480469 119.839844 190.457031 117.148438 186.308594 114.65625 C 185.628906 114.25 184.679688 113.890625 185.089844 112.890625 C 185.5 111.894531 186.488281 111.714844 187.449219 112.015625 C 189.652344 112.703125 191.835938 113.480469 193.835938 114.640625 C 206.160156 121.792969 218.921875 127.902344 232.820312 131.371094 C 234.667969 131.828125 235.972656 132.765625 235.734375 134.984375 C 235.535156 136.867188 236.796875 138.527344 236.664062 140.410156 C 236.769531 144.867188 236.652344 149.320312 236.746094 153.777344 C 236.796875 156.195312 237.398438 158.320312 239.972656 159.265625 C 240.203125 159.265625 240.445312 159.320312 240.667969 159.28125 C 253.027344 156.8125 257.296875 168.488281 253.242188 177.683594 C 249.855469 185.355469 242.40625 189.699219 234.007812 188.769531 C 232.230469 188.566406 231.210938 189.117188 230.261719 190.480469 C 225.773438 196.921875 220.136719 202.175781 213.402344 206.152344 C 211.402344 207.332031 211.210938 208.867188 211.363281 210.773438 C 208.109375 210.820312 205.132812 211.917969 202.226562 213.253906 C 195.589844 216.304688 188.980469 216.617188 182.316406 213.234375 C 180.066406 212.09375 177.648438 211.300781 175.421875 210.085938 Z M 175.425781 210.097656 " fill-opacity="1" fill-rule="nonzero"/><path fill="#191919" d="M 234.972656 140.71875 C 234.855469 140.390625 234.589844 140.035156 234.644531 139.746094 C 235.679688 133.898438 231.988281 132.765625 227.382812 131.570312 C 215.691406 128.527344 205.035156 122.9375 194.550781 117.050781 C 191.878906 115.550781 189.027344 114.371094 186.085938 113.355469 C 191.527344 117.082031 197.027344 120.644531 201.9375 125.128906 C 199.050781 123.335938 196.164062 121.550781 193.289062 119.75 C 191.621094 118.707031 189.882812 117.769531 188.335938 116.566406 C 178.132812 108.628906 167.394531 110.226562 156.652344 114.945312 C 150.367188 117.707031 149.15625 121.007812 149.417969 127.824219 C 149.800781 137.636719 149.554688 147.472656 149.625 157.300781 C 149.640625 159.417969 148.765625 159.960938 146.835938 159.28125 C 145.429688 158.789062 143.925781 158.53125 142.90625 157.277344 C 138.875 146.0625 134.964844 134.804688 131.558594 123.371094 C 131.230469 122.277344 131.121094 121.132812 130.90625 120.011719 C 130.046875 118.316406 129.671875 116.550781 130.207031 114.675781 C 130.003906 108.628906 133.707031 104.890625 138.015625 101.554688 C 140.679688 99.488281 143.660156 97.898438 146.878906 96.9375 C 150.0625 95.988281 153.351562 95.382812 157.191406 94.484375 C 153.925781 93.0625 151.019531 92.539062 147.988281 92.878906 C 144.765625 93.242188 141.671875 94.117188 138.75 95.597656 C 136.023438 96.980469 133.847656 99.101562 131.566406 101.09375 C 137.703125 91.984375 147.671875 88.882812 158.496094 92.394531 C 159.59375 92.75 160.75 93.011719 161.75 93.554688 C 163.921875 94.742188 164.828125 94.605469 164.996094 91.726562 C 165.378906 85.152344 169.066406 80.230469 174.027344 76.359375 C 183.304688 69.117188 193.828125 68.285156 204.890625 71.066406 C 205.515625 71.222656 206.070312 71.691406 207.074219 72.253906 C 200.121094 73.335938 194.15625 75.554688 189.175781 80.628906 C 191.394531 81.21875 193.085938 80.246094 194.828125 80.066406 C 217.367188 77.714844 234.152344 87.3125 246.839844 105.246094 C 252.636719 113.4375 257.320312 122.425781 264.097656 129.9375 C 265.289062 131.257812 264.636719 131.792969 263.402344 132.480469 C 258.722656 135.09375 253.65625 136.128906 248.40625 135.878906 C 245.570312 135.742188 245.058594 136.949219 245.398438 139.277344 C 245.777344 140.292969 244.835938 140.183594 244.378906 140.480469 C 244.070312 140.597656 243.753906 140.65625 243.425781 140.648438 C 241.320312 140.472656 239.835938 138.132812 237.457031 138.929688 C 236.484375 139.320312 236.191406 140.667969 234.984375 140.71875 Z M 234.972656 140.71875 " fill-opacity="1" fill-rule="nonzero"/><path fill="#fe9881" d="M 217 244.175781 C 211.347656 249.789062 205.960938 255.65625 200.007812 260.984375 C 194.007812 266.359375 194.058594 266.582031 188.03125 261.214844 C 183.195312 256.914062 178.5625 252.382812 173.816406 247.984375 C 172.8125 247.042969 171.6875 246.230469 170.621094 245.363281 C 167.078125 244.550781 164.40625 241.386719 164.953125 238.664062 C 166.925781 237.660156 169.082031 237.535156 171.21875 237.265625 C 174.492188 241.144531 174.589844 241.109375 179.429688 239.699219 C 190.609375 236.433594 199.175781 229.417969 206.625 220.792969 C 207.304688 220.007812 207.976562 219.21875 208.644531 218.417969 C 210.148438 216.617188 211.292969 217.292969 212.265625 218.988281 C 212.894531 223.28125 213.804688 227.5625 214.058594 231.886719 C 214.273438 235.5 215.300781 237.789062 219.269531 237.914062 C 219.898438 237.933594 220.515625 238.390625 221.140625 238.648438 C 222.105469 241.628906 221.03125 243.070312 217 244.1875 Z M 217 244.175781 " fill-opacity="1" fill-rule="nonzero"/><path fill="#964f4f" d="M 164.945312 238.664062 C 166.4375 241.234375 169.242188 242.695312 170.613281 245.363281 C 166.957031 247.886719 162.527344 247.78125 158.457031 248.804688 C 147.101562 251.652344 136.234375 255.566406 126.097656 261.550781 C 113.476562 269 107.914062 280.3125 107.429688 294.574219 C 107.34375 297.113281 107.351562 299.664062 107.414062 302.199219 C 107.484375 305 105.75 305.304688 103.542969 305.328125 C 101.253906 305.347656 99.839844 304.796875 99.757812 302.089844 C 99.632812 298.070312 100.421875 294.003906 99.179688 290.050781 C 99.5 276.679688 104.425781 265.648438 115.4375 257.644531 C 128.082031 248.449219 142.515625 243.570312 157.503906 240.023438 C 159.953125 239.449219 162.375 238.59375 164.945312 238.671875 Z M 164.945312 238.664062 " fill-opacity="1" fill-rule="nonzero"/><path fill="#f7705c" d="M 212.257812 218.972656 C 210.105469 217.917969 209.578125 219.890625 208.664062 220.980469 C 200.847656 230.378906 191.726562 237.90625 179.769531 241.402344 C 178.667969 241.726562 177.558594 242.046875 176.433594 242.296875 C 171.925781 243.3125 170.613281 242.039062 171.203125 237.253906 C 173.136719 232.011719 173 226.429688 173.886719 221.015625 C 174.484375 217.390625 174.914062 213.734375 175.421875 210.089844 C 176.441406 208.890625 177.621094 209 178.8125 209.75 C 188.5 215.894531 198.085938 214.421875 207.414062 209.0625 C 210.09375 207.527344 210.722656 208.644531 211.363281 210.773438 C 211.804688 213.484375 212.410156 216.1875 212.257812 218.960938 Z M 212.257812 218.972656 " fill-opacity="1" fill-rule="nonzero"/><path fill="#964f4f" d="M 217 244.175781 C 218.132812 242.144531 220.566406 241.089844 221.140625 238.636719 C 238.441406 241.886719 254.128906 248.363281 265.773438 262.1875 C 272.972656 270.738281 275.625 281.078125 275.851562 292.121094 C 274.652344 295.261719 275.394531 298.535156 275.269531 301.75 C 275.1875 303.902344 274.699219 305.300781 272.164062 305.3125 C 269.6875 305.328125 269.195312 304.027344 268.945312 301.84375 C 268.242188 295.761719 268.332031 289.625 267.238281 283.566406 C 264.324219 267.394531 254.234375 257.476562 239.660156 251.449219 C 233.902344 249.066406 228.007812 247.023438 221.816406 246.015625 C 220.09375 245.738281 218.4375 245.238281 217.007812 244.167969 Z M 217 244.175781 " fill-opacity="1" fill-rule="nonzero"/><path fill="#191919" d="M 234.972656 140.71875 C 235.0625 139.273438 234.855469 137.769531 235.695312 136.457031 C 239.003906 136.359375 241.3125 138.667969 244.050781 139.945312 L 244.007812 139.917969 C 244.265625 140.160156 244.695312 140.214844 244.800781 140.640625 C 244.648438 147.230469 242.03125 153.183594 239.980469 159.28125 C 236.261719 161.949219 235.742188 161.84375 235.429688 157.328125 C 235.046875 151.808594 235.105469 146.257812 234.972656 140.71875 Z M 234.972656 140.71875 " fill-opacity="1" fill-rule="nonzero"/><path fill="#191919" d="M 130.199219 114.667969 C 130.433594 116.449219 130.664062 118.226562 130.898438 120.007812 C 129.226562 124.792969 130.699219 129.5 131.425781 134.183594 C 131.910156 137.3125 132.925781 140.355469 133.761719 143.691406 C 129.949219 139.550781 128.074219 123 130.207031 114.675781 Z M 130.199219 114.667969 " fill-opacity="1" fill-rule="nonzero"/><path fill="#191919" d="M 244.800781 140.640625 C 244.535156 140.398438 244.273438 140.160156 244.007812 139.917969 C 244.46875 139.703125 244.925781 139.488281 245.382812 139.273438 C 249.738281 141.289062 254.578125 141.542969 259.117188 142.960938 C 254.085938 143.636719 249.558594 141.460938 244.800781 140.640625 Z M 244.800781 140.640625 " fill-opacity="1" fill-rule="nonzero"/><path fill="#191919" d="M 253.03125 110.636719 C 251.175781 107.851562 249.324219 105.058594 247.464844 102.269531 C 250.355469 104.375 251.875 107.414062 253.816406 110.160156 C 253.554688 110.316406 253.296875 110.476562 253.03125 110.636719 Z M 253.03125 110.636719 " fill-opacity="1" fill-rule="nonzero"/><path fill="#191919" d="M 261.015625 118.609375 C 263.386719 119.207031 265.46875 120.355469 267.777344 120.847656 C 265.054688 121.542969 262.882812 120.402344 261.015625 118.609375 Z M 261.015625 118.609375 " fill-opacity="1" fill-rule="nonzero"/><path fill="#ffffff" d="M 192.878906 192.675781 C 185.367188 192.605469 179.554688 186.148438 180.183594 178.699219 C 180.316406 177.136719 181.066406 176.738281 182.390625 176.730469 C 189.429688 176.703125 196.46875 176.65625 203.511719 176.632812 C 204.746094 176.632812 205.679688 176.828125 205.835938 178.46875 C 206.527344 185.78125 200.230469 192.746094 192.878906 192.683594 Z M 192.878906 192.675781 " fill-opacity="1" fill-rule="nonzero"/><path fill="#f7705c" d="M 162.351562 174.667969 C 156.410156 174.667969 153.917969 172.964844 153.945312 168.953125 C 153.980469 163.6875 157.339844 160.753906 163.316406 160.773438 C 168.789062 160.789062 171.230469 163.046875 171.195312 168.070312 C 171.167969 172.671875 168.476562 174.675781 162.351562 174.667969 Z M 162.351562 174.667969 " fill-opacity="1" fill-rule="nonzero"/><path fill="#f7705c" d="M 222.882812 174.667969 C 222.078125 174.667969 221.273438 174.679688 220.46875 174.667969 C 214.773438 174.550781 212.277344 170.40625 214.863281 165.25 C 215.808594 163.367188 217.222656 162.046875 219.5625 162.816406 C 220.707031 163.191406 221.800781 163.089844 222.953125 163.011719 C 224.082031 162.9375 225.261719 162.949219 226.363281 163.191406 C 230.554688 164.136719 233.210938 167.085938 232.765625 170.136719 C 232.328125 173.160156 229.992188 174.578125 225.296875 174.675781 C 224.492188 174.6875 223.6875 174.675781 222.882812 174.675781 Z M 222.882812 174.667969 " fill-opacity="1" fill-rule="nonzero"/><path fill="#191919" d="M 228.625 141.605469 C 221.101562 138.542969 213.304688 138.125 205.488281 137.859375 C 203.425781 137.792969 201.761719 137.054688 201.816406 134.671875 C 201.875 132.289062 203.628906 131.703125 205.640625 131.605469 C 211.472656 131.328125 217.125 132.292969 222.5625 134.332031 C 225.789062 135.539062 227.253906 138.492188 228.625 141.601562 Z M 228.625 141.605469 " fill-opacity="1" fill-rule="nonzero"/><path fill="#191919" d="M 155.363281 142.441406 C 157.011719 138.75 158.808594 135.941406 162.082031 134.707031 C 167.070312 132.820312 172.269531 131.675781 177.640625 131.695312 C 179.777344 131.695312 182.09375 131.972656 182.15625 134.824219 C 182.210938 137.597656 179.941406 138.203125 177.820312 138.292969 C 172.855469 138.5 167.878906 138.527344 163.054688 139.882812 C 160.660156 140.558594 158.324219 141.445312 155.363281 142.441406 Z M 155.363281 142.441406 " fill-opacity="1" fill-rule="nonzero"/><path fill="#f7705c" d="M 247.808594 168.460938 C 247.566406 169.921875 246.542969 170.136719 245.855469 170.664062 C 244.21875 171.902344 243.058594 172.820312 245.410156 174.800781 C 247.566406 176.621094 246.257812 178.832031 244.695312 180.535156 C 242.984375 182.410156 240.730469 183.972656 238.34375 182.417969 C 236.191406 181.011719 236.699219 178.425781 237.914062 176.515625 C 240.242188 172.839844 243.046875 169.601562 247.808594 168.460938 Z M 247.808594 168.460938 " fill-opacity="1" fill-rule="nonzero"/><path fill="#f7705c" d="M 141.40625 171.804688 C 139.632812 170.449219 138.105469 169.28125 136.503906 168.058594 C 140.71875 167.503906 146.34375 172.449219 146.21875 176.46875 C 146.179688 177.828125 145.832031 179.101562 144.300781 179.332031 C 141.890625 179.691406 139.402344 179.929688 137.613281 177.753906 C 136.621094 176.542969 136.199219 175.042969 137.003906 173.570312 C 137.863281 172 139.839844 173.105469 141.40625 171.804688 Z M 141.40625 171.804688 " fill-opacity="1" fill-rule="nonzero"/><path fill="#191919" d="M 170.398438 150.566406 C 172.339844 151.023438 173.949219 151.84375 173.902344 154.160156 C 173.851562 156.222656 172.554688 157.445312 170.621094 157.480469 C 168.476562 157.515625 167.1875 156.179688 167.203125 153.972656 C 167.214844 151.941406 168.375 150.816406 170.398438 150.566406 Z M 170.398438 150.566406 " fill-opacity="1" fill-rule="nonzero"/><path fill="#191919" d="M 213.726562 151.058594 C 215.664062 151.191406 216.964844 152.109375 216.925781 154.226562 C 216.882812 156.453125 215.398438 157.625 213.394531 157.597656 C 211.417969 157.578125 210.292969 156.0625 210.320312 154.152344 C 210.347656 152.144531 211.652344 151.109375 213.734375 151.058594 Z M 213.726562 151.058594 " fill-opacity="1" fill-rule="nonzero"/><path fill="#f7705c" d="M 193.890625 169.324219 C 192.640625 162.894531 193.90625 156.402344 193.453125 149.953125 C 194.800781 154.507812 195.203125 165.460938 193.890625 169.324219 Z M 193.890625 169.324219 " fill-opacity="1" fill-rule="nonzero"/><path fill="#191919" d="M 221.09375 153.339844 C 217.820312 150.292969 214.554688 147.578125 209.441406 149.445312 C 211.085938 147.167969 212.265625 146.5 214.359375 147.042969 C 217.605469 147.882812 220.011719 149.847656 221.085938 153.339844 Z M 221.09375 153.339844 " fill-opacity="1" fill-rule="nonzero"/><path fill="#191919" d="M 175.84375 149.25 C 169.953125 146.703125 166.910156 151.050781 162.902344 153.777344 C 164.515625 147.480469 171.363281 145.003906 175.84375 149.25 Z M 175.84375 149.25 " fill-opacity="1" fill-rule="nonzero"/><path fill="#191919" d="M 244.058594 139.945312 C 241.269531 138.785156 238.488281 137.617188 235.699219 136.457031 C 235.511719 135.746094 235.722656 135.207031 236.492188 135.59375 C 239.09375 136.902344 242.003906 137.6875 244.058594 139.945312 Z M 244.058594 139.945312 " fill-opacity="1" fill-rule="nonzero"/></svg>