<?xml version="1.0" encoding="UTF-8"?>
<svg id="Layer_1" xmlns="http://www.w3.org/2000/svg" xmlns:xlink="http://www.w3.org/1999/xlink" viewBox="0 0 427.97 50.23">
  <defs>
    <clipPath id="clippath">
      <rect x="154.72" width="14.67" height="45.33" fill="none"/>
    </clipPath>
    <clipPath id="clippath-1">
      <rect x="153.31" y="3.27" width="20" height="39" transform="translate(1.42 54.09) rotate(-18.89)" fill="none"/>
    </clipPath>
    <clipPath id="clippath-2">
      <rect x="153.31" y="3.27" width="20" height="39" transform="translate(1.42 54.09) rotate(-18.89)" fill="none"/>
    </clipPath>
    <clipPath id="clippath-3">
      <rect x="154.72" y="2.67" width="8" height="42.67" fill="none"/>
    </clipPath>
    <clipPath id="clippath-4">
      <rect x="153.31" y="3.27" width="20" height="39" transform="translate(1.42 54.09) rotate(-18.89)" fill="none"/>
    </clipPath>
    <clipPath id="clippath-5">
      <rect x="153.31" y="3.27" width="20" height="39" transform="translate(1.42 54.09) rotate(-18.89)" fill="none"/>
    </clipPath>
    <clipPath id="clippath-6">
      <rect x="0" y="5.42" width="66.78" height="44.4" fill="none"/>
    </clipPath>
    <clipPath id="clippath-7">
      <path d="M22.2,5.42h22.24c5.89,0,11.54,2.34,15.7,6.51,4.17,4.16,6.51,9.81,6.51,15.7s-2.34,11.53-6.51,15.7c-4.16,4.16-9.81,6.5-15.7,6.5h-22.24c-5.89,0-11.53-2.34-15.7-6.5C2.34,39.16,0,33.51,0,27.63s2.34-11.54,6.5-15.7c4.17-4.17,9.81-6.51,15.7-6.51Z" fill="none"/>
    </clipPath>
    <clipPath id="clippath-8">
      <rect x="26.72" y="12" width="10.67" height="33.33" fill="none"/>
    </clipPath>
    <clipPath id="clippath-9">
      <rect x="25.48" y="13.99" width="15" height="29" transform="translate(-7.44 12.21) rotate(-18.88)" fill="none"/>
    </clipPath>
    <clipPath id="clippath-10">
      <rect x="25.48" y="13.99" width="15" height="29" transform="translate(-7.44 12.21) rotate(-18.88)" fill="none"/>
    </clipPath>
    <clipPath id="clippath-11">
      <rect x="26.72" y="11.62" width="6.67" height="32" fill="none"/>
    </clipPath>
    <clipPath id="clippath-12">
      <rect x="25.48" y="12.28" width="15" height="29" transform="translate(-6.89 12.12) rotate(-18.88)" fill="none"/>
    </clipPath>
    <clipPath id="clippath-13">
      <rect x="25.48" y="12.28" width="15" height="29" transform="translate(-6.89 12.12) rotate(-18.88)" fill="none"/>
    </clipPath>
  </defs>
  <path d="M89.35,37.56h-6.83v11.77h-12.52V5.02h20.25c4,0,7.48.67,10.44,2s5.23,3.24,6.83,5.71c1.61,2.46,2.42,5.35,2.42,8.69s-.75,6.01-2.25,8.4c-1.5,2.38-3.65,4.24-6.44,5.6l9.56,13.92h-13.42l-8.04-11.77ZM97.27,21.42c0-2.07-.66-3.67-1.96-4.81-1.31-1.14-3.25-1.71-5.83-1.71h-6.96v12.98h6.96c2.58,0,4.53-.55,5.83-1.67,1.3-1.13,1.96-2.72,1.96-4.79Z" fill="#2f4b5b"/>
  <path d="M145.93,39.65v9.69h-35.56V5.02h34.75v9.69h-22.35v7.48h19.69v9.35h-19.69v8.1h23.17Z" fill="#2f4b5b"/>
  <path d="M162,50.23c-3.58,0-7.06-.45-10.44-1.33-3.38-.89-6.12-2.07-8.23-3.54l4.1-9.25c1.98,1.31,4.28,2.36,6.9,3.17,2.63.81,5.2,1.21,7.73,1.21,4.8,0,7.21-1.2,7.21-3.6,0-1.28-.69-2.22-2.06-2.83-1.36-.61-3.56-1.25-6.6-1.92-3.33-.72-6.12-1.49-8.35-2.31-2.24-.82-4.16-2.14-5.77-3.96-1.6-1.82-2.4-4.27-2.4-7.35,0-2.69.73-5.13,2.21-7.29,1.48-2.18,3.69-3.9,6.63-5.17,2.93-1.26,6.53-1.9,10.79-1.9,2.92,0,5.78.33,8.6.98,2.83.66,5.32,1.61,7.48,2.88l-3.88,9.31c-4.21-2.28-8.3-3.42-12.27-3.42-2.49,0-4.3.37-5.44,1.1-1.14.74-1.71,1.7-1.71,2.88s.67,2.07,2.02,2.67c1.34.58,3.52,1.2,6.52,1.83,3.38.71,6.17,1.48,8.38,2.31,2.22.82,4.15,2.13,5.77,3.92s2.44,4.23,2.44,7.31c0,2.66-.74,5.06-2.23,7.21-1.47,2.16-3.69,3.88-6.65,5.17-2.95,1.29-6.53,1.94-10.75,1.94Z" fill="#2f4b5b"/>
  <path d="M201.36,50.23c-6.58,0-11.7-1.79-15.35-5.38-3.66-3.59-5.48-8.69-5.48-15.27V5.02h12.54v24.19c0,7.08,2.8,10.63,8.42,10.63s8.35-3.54,8.35-10.63V5.02h12.33v24.56c0,6.58-1.83,11.68-5.48,15.27-3.64,3.58-8.75,5.38-15.33,5.38Z" fill="#2f4b5b"/>
  <path d="M264.21,49.33l-.13-23.48-11.4,19.1h-5.58l-11.31-18.48v22.85h-11.58V5.02h10.31l15.56,25.58,15.19-25.58h10.33l.13,44.31h-11.52Z" fill="#2f4b5b"/>
  <path d="M313.69,39.65v9.69h-35.56V5.02h34.75v9.69h-22.35v7.48h19.69v9.35h-19.69v8.1h23.17Z" fill="#2f4b5b"/>
  <path d="M333.55,37.56h-6.83v11.77h-12.52V5.02h20.25c4,0,7.48.67,10.44,2s5.23,3.24,6.83,5.71c1.61,2.46,2.42,5.35,2.42,8.69s-.75,6.01-2.25,8.4c-1.5,2.38-3.65,4.24-6.44,5.6l9.56,13.92h-13.42l-8.04-11.77ZM341.46,21.42c0-2.07-.66-3.67-1.96-4.81-1.31-1.14-3.25-1.71-5.83-1.71h-6.96v12.98h6.96c2.58,0,4.53-.55,5.83-1.67,1.3-1.13,1.96-2.72,1.96-4.79Z" fill="#2f4b5b"/>
  <path d="M359.04,49.9c-2.02,0-3.72-.67-5.13-2.02-1.39-1.34-2.08-3.05-2.08-5.13s.68-3.82,2.04-5.13c1.38-1.3,3.09-1.96,5.17-1.96s3.84.66,5.19,1.96c1.36,1.31,2.04,3.02,2.04,5.13s-.69,3.78-2.06,5.13c-1.38,1.35-3.1,2.02-5.17,2.02Z" fill="#2f4b5b"/>
  <path d="M366.02,5.02h12.52v44.31h-12.52V5.02Z" fill="#2f4b5b"/>
  <path d="M403.35,50.23c-4.68,0-8.89-.99-12.63-2.98-3.74-1.98-6.68-4.73-8.81-8.23-2.13-3.5-3.19-7.44-3.19-11.83s1.06-8.33,3.19-11.83c2.14-3.51,5.07-6.26,8.81-8.23,3.73-1.98,7.94-2.98,12.63-2.98s8.89.99,12.63,2.98c3.73,1.97,6.67,4.72,8.79,8.23,2.14,3.5,3.21,7.45,3.21,11.83s-1.07,8.33-3.21,11.83c-2.13,3.5-5.06,6.24-8.79,8.23-3.74,1.99-7.95,2.98-12.63,2.98ZM403.35,39.83c2.23,0,4.26-.53,6.06-1.58,1.82-1.05,3.26-2.54,4.31-4.46,1.05-1.92,1.58-4.11,1.58-6.6s-.53-4.71-1.58-6.63c-1.06-1.92-2.49-3.4-4.31-4.46-1.81-1.05-3.83-1.58-6.06-1.58s-4.27.53-6.08,1.58c-1.81,1.06-3.24,2.54-4.29,4.46-1.06,1.92-1.58,4.13-1.58,6.63s.53,4.69,1.58,6.6c1.05,1.92,2.48,3.41,4.29,4.46,1.82,1.06,3.84,1.58,6.08,1.58Z" fill="#2f4b5b"/>
  <g clip-path="url(#clippath)">
    <g clip-path="url(#clippath-1)">
      <g clip-path="url(#clippath-2)">
        <path d="M156.79,4.39l9.43-3.22-3.15,15.22,5.53-1.89-8.51,29.79,1.09-21.22-5.91,2.35,1.52-21.03Z" fill="#fff"/>
      </g>
    </g>
  </g>
  <g clip-path="url(#clippath-3)">
    <g clip-path="url(#clippath-4)">
      <g clip-path="url(#clippath-5)">
        <path d="M156.79,4.39l1.63-.55-3.14,21.58,1.52-21.03ZM160.1,44.28l2.23-21.61-1.14.39-1.09,21.22Z" fill="#fff"/>
      </g>
    </g>
  </g>
  <g clip-path="url(#clippath-6)">
    <g clip-path="url(#clippath-7)">
      <path d="M0,5.42h66.6v44.4H0V5.42Z" fill="#2f4b5b"/>
    </g>
  </g>
  <g clip-path="url(#clippath-8)">
    <g clip-path="url(#clippath-9)">
      <g clip-path="url(#clippath-10)">
        <path d="M28.11,14.83l7.04-2.41-2.34,11.36,4.13-1.41-6.35,22.24.82-15.84-4.42,1.76,1.14-15.7Z" fill="#fff"/>
      </g>
    </g>
  </g>
  <g clip-path="url(#clippath-11)">
    <g clip-path="url(#clippath-12)">
      <g clip-path="url(#clippath-13)">
        <path d="M28.11,13.12l1.21-.41-2.35,16.11,1.14-15.7ZM30.58,42.91l1.67-16.14-.85.29-.82,15.84Z" fill="#fff"/>
      </g>
    </g>
  </g>
</svg>